<!-- Icon: Logo -->
<svg xmlns="http://www.w3.org/2000/svg" width="130.473" height="36.18" viewBox="0 0 130.473 36.18">
  <path d="M15.889,36.18A17.735,17.735,0,0,1,13.333,36a.409.409,0,0,1-.353-.411V20.661a.42.42,0,0,1,.263-.386,2.934,2.934,0,0,0,0-5.49.4.4,0,0,1-.263-.386V.59a.415.415,0,0,1,.353-.411,18.365,18.365,0,0,1,5.113,0A.409.409,0,0,1,18.8.59V7.354a.42.42,0,0,1-.263.386,2.934,2.934,0,0,0,0,5.49.4.4,0,0,1,.263.386V35.6a.415.415,0,0,1-.353.411A18.975,18.975,0,0,1,15.889,36.18Z" transform="translate(2.193)" fill="#fff"/>
  <path d="M12.1,35.407a.556.556,0,0,1-.115-.016,17.891,17.891,0,0,1-5.112-2.375.407.407,0,0,1-.181-.345V28.084a.412.412,0,0,1,.263-.386,2.93,2.93,0,0,0,0-5.49.4.4,0,0,1-.263-.386V3.319a.418.418,0,0,1,.181-.345A17.889,17.889,0,0,1,11.987.6a.437.437,0,0,1,.362.066.394.394,0,0,1,.164.329V14.3a.42.42,0,0,1-.263.386,2.934,2.934,0,0,0,0,5.49.412.412,0,0,1,.263.386V35a.4.4,0,0,1-.164.329A.372.372,0,0,1,12.1,35.407Z" transform="translate(1.131 0.099)" fill="#ffc136"/>
  <path d="M5.893,30.59a.426.426,0,0,1-.288-.115A17.974,17.974,0,0,1,0,17.389,18.024,18.024,0,0,1,5.614,4.3a.4.4,0,0,1,.444-.082A.415.415,0,0,1,6.3,4.6V21.228a.42.42,0,0,1-.263.386,2.934,2.934,0,0,0,0,5.491.412.412,0,0,1,.263.386v2.7a.415.415,0,0,1-.247.378A1.24,1.24,0,0,1,5.893,30.59Z" transform="translate(0 0.708)" fill="#fff"/>
  <path d="M19.677,35.406a.388.388,0,0,1-.247-.082.394.394,0,0,1-.164-.329V13.518a.42.42,0,0,1,.263-.386,2.934,2.934,0,0,0,0-5.491.412.412,0,0,1-.263-.386V1A.4.4,0,0,1,19.43.671a.437.437,0,0,1,.362-.066A17.89,17.89,0,0,1,24.9,2.98a.407.407,0,0,1,.181.345V21.844a.42.42,0,0,1-.263.386,2.934,2.934,0,0,0,0,5.491.4.4,0,0,1,.263.386v4.586a.418.418,0,0,1-.181.345,17.89,17.89,0,0,1-5.113,2.375A.282.282,0,0,0,19.677,35.406Z" transform="translate(3.255 0.1)" fill="#ffc136"/>
  <path d="M25.956,30.59a.392.392,0,0,1-.164-.033.415.415,0,0,1-.247-.378v-2.7a.42.42,0,0,1,.263-.386,2.934,2.934,0,0,0,0-5.49.4.4,0,0,1-.263-.386V4.6a.415.415,0,0,1,.247-.378.4.4,0,0,1,.444.082,18.137,18.137,0,0,1,4.1,5.844,18.049,18.049,0,0,1-4.1,20.327A.391.391,0,0,1,25.956,30.59Z" transform="translate(4.317 0.708)" fill="#fff"/>
  <path d="M37.383,27.641V10.25h2.56a1.029,1.029,0,0,1,1.068.763l.271,1.288a10.514,10.514,0,0,1,.949-.932A6.613,6.613,0,0,1,43.3,10.64a5.7,5.7,0,0,1,1.22-.475,5.292,5.292,0,0,1,1.441-.186,4,4,0,0,1,2.7.9,5.268,5.268,0,0,1,1.593,2.356,5.181,5.181,0,0,1,1.017-1.475A5.451,5.451,0,0,1,52.6,10.742a6.183,6.183,0,0,1,1.542-.576,7.562,7.562,0,0,1,1.661-.186,6.944,6.944,0,0,1,2.559.441,4.909,4.909,0,0,1,1.881,1.288A5.584,5.584,0,0,1,61.4,13.776a8.834,8.834,0,0,1,.407,2.8V27.641H57.621V16.573a3.686,3.686,0,0,0-.729-2.492,2.663,2.663,0,0,0-2.136-.848,3.253,3.253,0,0,0-1.2.22,2.816,2.816,0,0,0-1.61,1.678,4.053,4.053,0,0,0-.237,1.441V27.641H47.5V16.573a3.755,3.755,0,0,0-.712-2.543,2.6,2.6,0,0,0-2.068-.8,3.349,3.349,0,0,0-1.695.458,5.587,5.587,0,0,0-1.458,1.22v12.73Zm32.2-17.391V21.3a3.779,3.779,0,0,0,.729,2.475,2.773,2.773,0,0,0,2.22.864,4.486,4.486,0,0,0,2.034-.475,7.292,7.292,0,0,0,1.8-1.339V10.25h4.187V27.641H77.989a1.029,1.029,0,0,1-1.068-.763l-.288-1.39a13.166,13.166,0,0,1-1.119,1,7.287,7.287,0,0,1-1.237.763,7.406,7.406,0,0,1-3.017.661,6.331,6.331,0,0,1-2.526-.475A5.143,5.143,0,0,1,66.9,26.065a6.093,6.093,0,0,1-1.136-2.085,9.131,9.131,0,0,1-.373-2.678V10.25Zm25.59,3.39a1.212,1.212,0,0,1-.356.39.985.985,0,0,1-.475.1,1.548,1.548,0,0,1-.661-.17q-.339-.17-.8-.373a6.621,6.621,0,0,0-1.051-.39,4.9,4.9,0,0,0-1.373-.17,3.219,3.219,0,0,0-1.949.525,1.63,1.63,0,0,0-.712,1.373,1.357,1.357,0,0,0,.356.949,3.534,3.534,0,0,0,.966.661,10.586,10.586,0,0,0,1.373.525q.763.22,1.559.492a15.5,15.5,0,0,1,1.559.627,5.008,5.008,0,0,1,1.356.881,3.839,3.839,0,0,1,.966,1.271,3.982,3.982,0,0,1,.373,1.8,5.833,5.833,0,0,1-.458,2.322,5.186,5.186,0,0,1-1.339,1.831,6.452,6.452,0,0,1-2.187,1.2,9.489,9.489,0,0,1-2.966.424,9.136,9.136,0,0,1-1.763-.17A10.069,10.069,0,0,1,85.95,27.3a9.574,9.574,0,0,1-1.458-.678,7.232,7.232,0,0,1-1.17-.848l.966-1.593a1.366,1.366,0,0,1,.441-.441,1.235,1.235,0,0,1,.644-.153,1.313,1.313,0,0,1,.729.22q.356.22.814.475a7.341,7.341,0,0,0,1.068.475,4.812,4.812,0,0,0,1.576.22,4.171,4.171,0,0,0,1.271-.17,2.707,2.707,0,0,0,.881-.475,1.658,1.658,0,0,0,.509-.661,1.981,1.981,0,0,0,.169-.8,1.388,1.388,0,0,0-.373-1,3.054,3.054,0,0,0-.966-.678,8.357,8.357,0,0,0-1.373-.509q-.763-.237-1.576-.509a16.932,16.932,0,0,1-1.576-.627,5.77,5.77,0,0,1-1.373-.932,4.352,4.352,0,0,1-.966-1.373,4.891,4.891,0,0,1-.356-1.966,5.009,5.009,0,0,1,.424-2.034,4.735,4.735,0,0,1,1.237-1.678,6.1,6.1,0,0,1,2.051-1.153,8.467,8.467,0,0,1,2.848-.441,8.692,8.692,0,0,1,3.271.593,7.389,7.389,0,0,1,2.458,1.559Zm8.764-11.187V27.641H99.749V2.453Zm10.746,29.968a1.526,1.526,0,0,1-.492.661,1.4,1.4,0,0,1-.9.237h-3.119l3.255-6.967-7.035-16.1h3.661a1.15,1.15,0,0,1,.78.237,1.55,1.55,0,0,1,.407.542l3.713,9.018a7.947,7.947,0,0,1,.321.915q.135.475.237.949c.09-.328.187-.644.289-.949s.231-.616.355-.932l3.492-9a1.251,1.251,0,0,1,.441-.559,1.235,1.235,0,0,1,.712-.22h3.356Z" transform="translate(6.317 0.415)" fill="#fff"/>
</svg>
