<svg xmlns="http://www.w3.org/2000/svg" width="130.473" height="36.18">
  <path d="M18.082 36.18a17.735 17.735 0 01-2.556-.18.409.409 0 01-.353-.411V20.661a.42.42 0 01.263-.386 2.934 2.934 0 000-5.49.4.4 0 01-.263-.386V.59a.415.415 0 01.353-.411 18.365 18.365 0 015.113 0 .409.409 0 01.354.411v6.764a.42.42 0 01-.263.386 2.934 2.934 0 000 5.49.4.4 0 01.263.386V35.6a.415.415 0 01-.353.411 18.975 18.975 0 01-2.558.169z" fill="#1a365d"/>
  <path d="M13.231 35.506a.556.556 0 01-.115-.016 17.891 17.891 0 01-5.112-2.375.407.407 0 01-.181-.345v-4.587a.412.412 0 01.263-.386 2.93 2.93 0 000-5.49.4.4 0 01-.263-.386V3.418a.418.418 0 01.181-.345A17.889 17.889 0 0113.118.699a.437.437 0 01.362.066.394.394 0 01.164.329v13.305a.42.42 0 01-.263.386 2.934 2.934 0 000 5.49.412.412 0 01.263.386v14.438a.4.4 0 01-.164.329.372.372 0 01-.249.078z" fill="#ffc136"/>
  <path d="M5.893 31.298a.426.426 0 01-.288-.115A17.974 17.974 0 010 18.097 18.024 18.024 0 015.614 5.008a.4.4 0 01.444-.082.415.415 0 01.242.382v16.628a.42.42 0 01-.263.386 2.934 2.934 0 000 5.491.412.412 0 01.263.386v2.7a.415.415 0 01-.247.378 1.24 1.24 0 01-.16.021z" fill="#1a365d"/>
  <path d="M22.932 35.506a.388.388 0 01-.247-.082.394.394 0 01-.164-.329V13.618a.42.42 0 01.263-.386 2.934 2.934 0 000-5.491.412.412 0 01-.263-.386V1.1a.4.4 0 01.164-.329.437.437 0 01.362-.066 17.89 17.89 0 015.108 2.375.407.407 0 01.181.345v18.519a.42.42 0 01-.263.386 2.934 2.934 0 000 5.491.4.4 0 01.263.386v4.586a.418.418 0 01-.181.345 17.89 17.89 0 01-5.113 2.375.282.282 0 00-.11-.007z" fill="#ffc136"/>
  <path d="M30.273 31.298a.392.392 0 01-.164-.033.415.415 0 01-.247-.378v-2.7a.42.42 0 01.263-.386 2.934 2.934 0 000-5.49.4.4 0 01-.263-.386V5.308a.415.415 0 01.247-.378.4.4 0 01.444.082 18.137 18.137 0 014.1 5.844 18.049 18.049 0 01-4.1 20.327.391.391 0 01-.28.115z" fill="#1a365d"/>
  <path d="M43.7 28.056V10.665h2.56a1.029 1.029 0 011.068.763l.271 1.288a10.514 10.514 0 01.949-.932 6.613 6.613 0 011.069-.729 5.7 5.7 0 011.22-.475 5.292 5.292 0 011.441-.186 4 4 0 012.7.9 5.268 5.268 0 011.593 2.356 5.181 5.181 0 011.017-1.475 5.451 5.451 0 011.329-1.018 6.183 6.183 0 011.542-.576 7.562 7.562 0 011.661-.186 6.944 6.944 0 012.559.441 4.909 4.909 0 011.881 1.288 5.584 5.584 0 011.157 2.067 8.834 8.834 0 01.407 2.8v11.065h-4.186V16.988a3.686 3.686 0 00-.729-2.492 2.663 2.663 0 00-2.136-.848 3.253 3.253 0 00-1.2.22 2.816 2.816 0 00-1.61 1.678 4.053 4.053 0 00-.237 1.441v11.069h-4.209V16.988a3.755 3.755 0 00-.712-2.543 2.6 2.6 0 00-2.068-.8 3.349 3.349 0 00-1.695.458 5.587 5.587 0 00-1.458 1.22v12.73zm32.2-17.391v11.05a3.779 3.779 0 00.729 2.475 2.773 2.773 0 002.22.864 4.486 4.486 0 002.034-.475 7.292 7.292 0 001.8-1.339V10.665h4.187v17.391h-2.564a1.029 1.029 0 01-1.068-.763l-.288-1.39a13.166 13.166 0 01-1.119 1 7.287 7.287 0 01-1.237.763 7.406 7.406 0 01-3.017.661 6.331 6.331 0 01-2.526-.475 5.143 5.143 0 01-1.834-1.372 6.093 6.093 0 01-1.136-2.085 9.131 9.131 0 01-.373-2.678V10.665zm25.59 3.39a1.212 1.212 0 01-.356.39.985.985 0 01-.475.1 1.548 1.548 0 01-.661-.17q-.339-.17-.8-.373a6.621 6.621 0 00-1.051-.39 4.9 4.9 0 00-1.373-.17 3.219 3.219 0 00-1.949.525 1.63 1.63 0 00-.712 1.373 1.357 1.357 0 00.356.949 3.534 3.534 0 00.966.661 10.586 10.586 0 001.373.525q.763.22 1.559.492a15.5 15.5 0 011.559.627 5.008 5.008 0 011.356.881 3.839 3.839 0 01.966 1.271 3.982 3.982 0 01.373 1.8 5.833 5.833 0 01-.458 2.322 5.186 5.186 0 01-1.339 1.831 6.452 6.452 0 01-2.187 1.2 9.489 9.489 0 01-2.966.424 9.136 9.136 0 01-1.763-.17 10.069 10.069 0 01-1.641-.438 9.574 9.574 0 01-1.458-.678 7.232 7.232 0 01-1.17-.848l.966-1.593a1.366 1.366 0 01.441-.441 1.235 1.235 0 01.644-.153 1.313 1.313 0 01.729.22q.356.22.814.475a7.341 7.341 0 001.068.475 4.812 4.812 0 001.576.22 4.171 4.171 0 001.271-.17 2.707 2.707 0 00.881-.475 1.658 1.658 0 00.509-.661 1.981 1.981 0 00.169-.8 1.388 1.388 0 00-.373-1 3.054 3.054 0 00-.966-.678 8.357 8.357 0 00-1.373-.509q-.763-.237-1.576-.509a16.932 16.932 0 01-1.576-.627 5.77 5.77 0 01-1.373-.932 4.352 4.352 0 01-.966-1.373 4.891 4.891 0 01-.356-1.966 5.009 5.009 0 01.424-2.034 4.735 4.735 0 011.237-1.678 6.1 6.1 0 012.051-1.153 8.467 8.467 0 012.848-.441 8.692 8.692 0 013.271.593 7.389 7.389 0 012.458 1.559zm8.764-11.187v25.188h-4.188V2.868zM121 32.836a1.526 1.526 0 01-.492.661 1.4 1.4 0 01-.9.237h-3.119l3.255-6.967-7.035-16.1h3.661a1.15 1.15 0 01.78.237 1.55 1.55 0 01.407.542l3.713 9.018a7.947 7.947 0 01.321.915q.135.475.237.949c.09-.328.187-.644.289-.949s.231-.616.355-.932l3.492-9a1.251 1.251 0 01.441-.559 1.235 1.235 0 01.712-.22h3.356z" fill="#1a365d"/>
</svg>
